<?xml version="1.0" encoding="UTF-8" standalone="no"?>
<!DOCTYPE svg PUBLIC "-//W3C//DTD SVG 1.1//EN" "http://www.w3.org/Graphics/SVG/1.1/DTD/svg11.dtd">
<svg version="1.1" xmlns="http://www.w3.org/2000/svg" xmlns:xlink="http://www.w3.org/1999/xlink" preserveAspectRatio="xMidYMid meet" viewBox="0 0 40 60" width="60" height="60"><defs><path d="M16.27 2.59L15.75 2.8L15.25 3.02L14.76 3.26L14.28 3.51L13.81 3.77L13.36 4.04L12.92 4.32L12.49 4.61L12.07 4.92L11.67 5.24L11.27 5.57L10.89 5.91L10.52 6.26L10.17 6.63L9.82 7L9.49 7.39L9.17 7.79L8.86 8.2L8.57 8.62L8.29 9.04L8.02 9.46L7.78 9.89L7.55 10.31L7.33 10.74L7.13 11.17L6.95 11.6L6.78 12.03L6.63 12.47L6.5 12.9L6.38 13.34L6.27 13.78L6.19 14.22L6.12 14.66L6.06 15.11L6.02 15.55L6 16L5.99 16.45L5.99 16.55L5.99 16.64L6 16.73L6 16.82L6.01 16.91L6.02 16.99L6.03 17.07L6.04 17.14L6.05 17.22L6.07 17.29L6.09 17.36L6.1 17.43L6.12 17.49L6.15 17.55L6.17 17.61L6.2 17.66L6.22 17.72L6.25 17.77L6.28 17.81L6.3 17.84L6.32 17.87L6.34 17.9L6.36 17.92L6.39 17.95L6.41 17.97L6.43 17.99L6.45 18.01L6.48 18.03L6.5 18.04L6.52 18.06L6.55 18.07L6.57 18.08L6.59 18.09L6.62 18.09L6.64 18.1L6.67 18.1L6.69 18.11L6.72 18.11L6.74 18.11L6.77 18.1L6.8 18.1L6.83 18.09L6.86 18.08L6.9 18.07L6.93 18.06L6.97 18.05L7 18.03L7.04 18.01L7.08 17.99L7.12 17.97L7.16 17.95L7.21 17.92L7.25 17.89L7.3 17.87L7.35 17.83L7.4 17.8L7.45 17.77L7.61 17.65L7.78 17.54L7.96 17.44L8.14 17.34L8.32 17.25L8.51 17.17L8.71 17.09L8.91 17.02L9.11 16.96L9.32 16.9L9.53 16.84L9.74 16.8L9.97 16.76L10.19 16.72L10.42 16.7L10.66 16.67L10.9 16.66L11.14 16.65L11.39 16.65L11.68 16.65L11.97 16.67L12.25 16.7L12.53 16.75L12.81 16.8L13.08 16.87L13.35 16.95L13.61 17.05L13.88 17.15L14.14 17.27L14.39 17.4L14.64 17.55L14.89 17.71L15.14 17.88L15.38 18.06L15.61 18.25L15.85 18.46L16.08 18.68L16.31 18.91L16.53 19.15L16.73 19.4L16.93 19.65L17.11 19.9L17.29 20.16L17.45 20.42L17.59 20.69L17.73 20.97L17.86 21.25L17.97 21.53L18.07 21.82L18.16 22.11L18.24 22.41L18.3 22.71L18.35 23.01L18.4 23.33L18.43 23.64L18.44 23.96L18.45 24.29L18.44 24.63L18.42 24.97L18.39 25.3L18.34 25.63L18.28 25.95L18.2 26.27L18.12 26.59L18.01 26.9L17.9 27.2L17.77 27.51L17.62 27.8L17.47 28.1L17.3 28.39L17.11 28.67L16.92 28.95L16.71 29.23L16.48 29.5L16.24 29.77L15.99 30.03L15.73 30.29L15.46 30.53L15.19 30.75L14.91 30.97L14.62 31.17L14.33 31.35L14.04 31.52L13.74 31.68L13.43 31.83L13.11 31.96L12.79 32.07L12.47 32.18L12.14 32.27L11.8 32.34L11.46 32.4L11.11 32.45L10.75 32.49L10.39 32.51L10.03 32.51L9.6 32.5L9.18 32.48L8.76 32.43L8.36 32.37L7.95 32.28L7.56 32.18L7.17 32.06L6.78 31.92L6.41 31.76L6.03 31.58L5.67 31.39L5.31 31.17L4.96 30.94L4.61 30.69L4.27 30.42L3.94 30.13L3.61 29.83L3.29 29.5L2.97 29.16L2.67 28.8L2.38 28.42L2.11 28.04L1.85 27.64L1.61 27.23L1.39 26.81L1.18 26.37L1 25.92L0.82 25.46L0.67 24.99L0.53 24.5L0.4 24L0.3 23.49L0.21 22.97L0.13 22.43L0.07 21.88L0.03 21.32L0.01 20.74L0 20.15L0.01 19.46L0.04 18.78L0.1 18.11L0.18 17.45L0.28 16.79L0.4 16.14L0.55 15.49L0.72 14.86L0.91 14.23L1.12 13.61L1.35 13L1.61 12.4L1.89 11.8L2.19 11.21L2.52 10.63L2.86 10.05L3.23 9.48L3.63 8.92L4.04 8.37L4.48 7.83L4.94 7.3L5.43 6.78L5.95 6.27L6.49 5.77L7.06 5.29L7.65 4.81L8.27 4.35L8.92 3.9L9.59 3.46L10.28 3.03L11.01 2.61L11.76 2.2L12.53 1.81L13.33 1.42L14.16 1.05L15.01 0.69L15.89 0.34L16.79 0L16.79 2.39L16.27 2.59Z" id="e5o3DgzEMT"></path><path d="M37.89 2.59L37.38 2.8L36.88 3.02L36.39 3.26L35.91 3.51L35.44 3.77L34.99 4.04L34.55 4.32L34.12 4.61L33.7 4.92L33.29 5.24L32.9 5.57L32.52 5.91L32.15 6.26L31.79 6.63L31.45 7L31.12 7.39L30.8 7.79L30.49 8.2L30.19 8.62L29.91 9.04L29.65 9.46L29.41 9.89L29.17 10.31L28.96 10.74L28.76 11.17L28.58 11.6L28.41 12.03L28.26 12.47L28.12 12.9L28.01 13.34L27.9 13.78L27.81 14.22L27.74 14.66L27.69 15.11L27.65 15.55L27.62 16L27.62 16.45L27.62 16.55L27.62 16.64L27.62 16.73L27.63 16.82L27.64 16.91L27.65 16.99L27.66 17.07L27.67 17.14L27.68 17.22L27.7 17.29L27.71 17.36L27.73 17.43L27.75 17.49L27.77 17.55L27.8 17.61L27.82 17.66L27.85 17.72L27.88 17.77L27.91 17.81L27.93 17.84L27.95 17.87L27.97 17.9L27.99 17.92L28.01 17.95L28.04 17.97L28.06 17.99L28.08 18.01L28.1 18.03L28.13 18.04L28.15 18.06L28.17 18.07L28.2 18.08L28.22 18.09L28.25 18.09L28.27 18.1L28.29 18.1L28.32 18.11L28.35 18.11L28.37 18.11L28.4 18.1L28.43 18.1L28.46 18.09L28.49 18.08L28.52 18.07L28.56 18.06L28.59 18.05L28.63 18.03L28.67 18.01L28.71 17.99L28.75 17.97L28.79 17.95L28.84 17.92L28.88 17.89L28.93 17.87L28.98 17.83L29.02 17.8L29.08 17.77L29.24 17.65L29.41 17.54L29.59 17.44L29.77 17.34L29.95 17.25L30.14 17.17L30.34 17.09L30.53 17.02L30.74 16.96L30.94 16.9L31.16 16.84L31.37 16.8L31.59 16.76L31.82 16.72L32.05 16.7L32.29 16.67L32.53 16.66L32.77 16.65L33.02 16.65L33.31 16.65L33.6 16.67L33.88 16.7L34.16 16.75L34.43 16.8L34.71 16.87L34.98 16.95L35.24 17.05L35.5 17.15L35.76 17.27L36.02 17.4L36.27 17.55L36.52 17.71L36.76 17.88L37 18.06L37.24 18.25L37.48 18.46L37.71 18.68L37.93 18.91L38.15 19.15L38.36 19.4L38.56 19.65L38.74 19.9L38.91 20.16L39.07 20.42L39.22 20.69L39.36 20.97L39.48 21.25L39.6 21.53L39.7 21.82L39.79 22.11L39.86 22.41L39.93 22.71L39.98 23.01L40.02 23.33L40.05 23.64L40.07 23.96L40.08 24.29L40.07 24.63L40.05 24.97L40.02 25.3L39.97 25.63L39.91 25.95L39.83 26.27L39.74 26.59L39.64 26.9L39.53 27.2L39.4 27.51L39.25 27.8L39.1 28.1L38.93 28.39L38.74 28.67L38.54 28.95L38.33 29.23L38.11 29.5L37.87 29.77L37.62 30.03L37.36 30.29L37.09 30.53L36.82 30.75L36.54 30.97L36.25 31.17L35.96 31.35L35.67 31.52L35.36 31.68L35.06 31.83L34.74 31.96L34.42 32.07L34.1 32.18L33.77 32.27L33.43 32.34L33.09 32.4L32.74 32.45L32.38 32.49L32.02 32.51L31.66 32.51L31.23 32.5L30.81 32.48L30.39 32.43L29.98 32.37L29.58 32.28L29.19 32.18L28.8 32.06L28.41 31.92L28.03 31.76L27.66 31.58L27.3 31.39L26.94 31.17L26.58 30.94L26.24 30.69L25.9 30.42L25.56 30.13L25.24 29.83L24.91 29.5L24.6 29.16L24.29 28.8L24.01 28.42L23.73 28.04L23.48 27.64L23.24 27.23L23.02 26.81L22.81 26.37L22.62 25.92L22.45 25.46L22.29 24.99L22.15 24.5L22.03 24L21.92 23.49L21.83 22.97L21.76 22.43L21.7 21.88L21.66 21.32L21.64 20.74L21.63 20.15L21.64 19.46L21.67 18.78L21.73 18.11L21.81 17.45L21.91 16.79L22.03 16.14L22.18 15.49L22.34 14.86L22.53 14.23L22.75 13.61L22.98 13L23.24 12.4L23.52 11.8L23.82 11.21L24.15 10.63L24.49 10.05L24.86 9.48L25.25 8.92L25.67 8.37L26.11 7.83L26.57 7.3L27.06 6.78L27.58 6.27L28.12 5.77L28.69 5.29L29.28 4.81L29.9 4.35L30.54 3.9L31.21 3.46L31.91 3.03L32.63 2.61L33.38 2.2L34.16 1.81L34.96 1.42L35.79 1.05L36.64 0.69L37.52 0.34L38.42 0L38.42 2.39L37.89 2.59Z" id="dVSSTyE15"></path></defs><g><g><g><use xlink:href="#e5o3DgzEMT" opacity="1" fill="#ffffff" fill-opacity="1"></use><g><use xlink:href="#e5o3DgzEMT" opacity="1" fill-opacity="0" stroke="#ffffff" stroke-width="1" stroke-opacity="0"></use></g></g><g><use xlink:href="#dVSSTyE15" opacity="1" fill="#ffffff" fill-opacity="1"></use><g><use xlink:href="#dVSSTyE15" opacity="1" fill-opacity="0" stroke="#ffffff" stroke-width="1" stroke-opacity="0"></use></g></g></g></g></svg>